<mxfile host="Electron" agent="Mozilla/5.0 (Windows NT 10.0; Win64; x64) AppleWebKit/537.36 (KHTML, like Gecko) draw.io/24.7.17 Chrome/128.0.6613.36 Electron/32.0.1 Safari/537.36" version="24.7.17">
  <diagram name="Page-1" id="9dF0byhlvkMtVGUysyS8">
    <mxGraphModel dx="1381" dy="1908" grid="1" gridSize="10" guides="1" tooltips="1" connect="1" arrows="1" fold="1" page="1" pageScale="1" pageWidth="850" pageHeight="1100" math="0" shadow="0">
      <root>
        <mxCell id="0" />
        <mxCell id="1" parent="0" />
        <mxCell id="EcfDH4kpc_ZnoD54JO9O-6" value="" style="edgeStyle=orthogonalEdgeStyle;rounded=0;orthogonalLoop=1;jettySize=auto;html=1;" edge="1" parent="1" source="EcfDH4kpc_ZnoD54JO9O-2" target="EcfDH4kpc_ZnoD54JO9O-5">
          <mxGeometry relative="1" as="geometry" />
        </mxCell>
        <mxCell id="EcfDH4kpc_ZnoD54JO9O-2" value="START" style="strokeWidth=2;html=1;shape=mxgraph.flowchart.terminator;whiteSpace=wrap;" vertex="1" parent="1">
          <mxGeometry x="120" width="100" height="60" as="geometry" />
        </mxCell>
        <mxCell id="EcfDH4kpc_ZnoD54JO9O-10" value="" style="edgeStyle=orthogonalEdgeStyle;rounded=0;orthogonalLoop=1;jettySize=auto;html=1;" edge="1" parent="1" source="EcfDH4kpc_ZnoD54JO9O-5" target="EcfDH4kpc_ZnoD54JO9O-9">
          <mxGeometry relative="1" as="geometry" />
        </mxCell>
        <mxCell id="EcfDH4kpc_ZnoD54JO9O-5" value="Inialisasi Wifi &amp;amp; Firebase , Pin LED dan PIN LDR" style="shape=hexagon;perimeter=hexagonPerimeter2;whiteSpace=wrap;html=1;fixedSize=1;strokeWidth=2;" vertex="1" parent="1">
          <mxGeometry x="91" y="81" width="160" height="80" as="geometry" />
        </mxCell>
        <mxCell id="EcfDH4kpc_ZnoD54JO9O-12" value="" style="edgeStyle=orthogonalEdgeStyle;rounded=0;orthogonalLoop=1;jettySize=auto;html=1;" edge="1" parent="1" source="EcfDH4kpc_ZnoD54JO9O-9" target="EcfDH4kpc_ZnoD54JO9O-11">
          <mxGeometry relative="1" as="geometry" />
        </mxCell>
        <mxCell id="EcfDH4kpc_ZnoD54JO9O-9" value="Koneksi Ke wifi" style="whiteSpace=wrap;html=1;strokeWidth=2;" vertex="1" parent="1">
          <mxGeometry x="111" y="186" width="120" height="60" as="geometry" />
        </mxCell>
        <mxCell id="EcfDH4kpc_ZnoD54JO9O-14" value="" style="edgeStyle=orthogonalEdgeStyle;rounded=0;orthogonalLoop=1;jettySize=auto;html=1;" edge="1" parent="1" source="EcfDH4kpc_ZnoD54JO9O-11" target="EcfDH4kpc_ZnoD54JO9O-13">
          <mxGeometry relative="1" as="geometry" />
        </mxCell>
        <mxCell id="EcfDH4kpc_ZnoD54JO9O-17" value="" style="edgeStyle=orthogonalEdgeStyle;rounded=0;orthogonalLoop=1;jettySize=auto;html=1;" edge="1" parent="1" source="EcfDH4kpc_ZnoD54JO9O-11" target="EcfDH4kpc_ZnoD54JO9O-16">
          <mxGeometry relative="1" as="geometry" />
        </mxCell>
        <mxCell id="EcfDH4kpc_ZnoD54JO9O-11" value="Apakah Sudah Terhubung&lt;div&gt;Ke Wifi&lt;/div&gt;" style="rhombus;whiteSpace=wrap;html=1;strokeWidth=2;" vertex="1" parent="1">
          <mxGeometry x="112" y="274" width="119" height="114" as="geometry" />
        </mxCell>
        <mxCell id="EcfDH4kpc_ZnoD54JO9O-13" value="Menampilkan Eror dan coba lagi" style="shape=parallelogram;perimeter=parallelogramPerimeter;whiteSpace=wrap;html=1;fixedSize=1;strokeWidth=2;" vertex="1" parent="1">
          <mxGeometry x="310.5" y="301" width="120" height="60" as="geometry" />
        </mxCell>
        <mxCell id="EcfDH4kpc_ZnoD54JO9O-15" value="" style="endArrow=classic;html=1;rounded=0;exitX=1;exitY=0.5;exitDx=0;exitDy=0;" edge="1" parent="1" source="EcfDH4kpc_ZnoD54JO9O-13">
          <mxGeometry width="50" height="50" relative="1" as="geometry">
            <mxPoint x="400" y="210" as="sourcePoint" />
            <mxPoint x="180" y="170" as="targetPoint" />
            <Array as="points">
              <mxPoint x="450" y="331" />
              <mxPoint x="450" y="170" />
            </Array>
          </mxGeometry>
        </mxCell>
        <mxCell id="EcfDH4kpc_ZnoD54JO9O-19" value="" style="edgeStyle=orthogonalEdgeStyle;rounded=0;orthogonalLoop=1;jettySize=auto;html=1;" edge="1" parent="1" source="EcfDH4kpc_ZnoD54JO9O-16" target="EcfDH4kpc_ZnoD54JO9O-18">
          <mxGeometry relative="1" as="geometry" />
        </mxCell>
        <mxCell id="EcfDH4kpc_ZnoD54JO9O-16" value="Menampilkan Terhubung Dengan Wifi" style="shape=parallelogram;perimeter=parallelogramPerimeter;whiteSpace=wrap;html=1;fixedSize=1;strokeWidth=2;" vertex="1" parent="1">
          <mxGeometry x="92.5" y="415" width="158.5" height="60" as="geometry" />
        </mxCell>
        <mxCell id="EcfDH4kpc_ZnoD54JO9O-88" value="" style="edgeStyle=orthogonalEdgeStyle;rounded=0;orthogonalLoop=1;jettySize=auto;html=1;" edge="1" parent="1" source="EcfDH4kpc_ZnoD54JO9O-18" target="EcfDH4kpc_ZnoD54JO9O-86">
          <mxGeometry relative="1" as="geometry" />
        </mxCell>
        <mxCell id="EcfDH4kpc_ZnoD54JO9O-18" value="Konfigurasi API dan URL database" style="shape=hexagon;perimeter=hexagonPerimeter2;whiteSpace=wrap;html=1;fixedSize=1;strokeWidth=2;" vertex="1" parent="1">
          <mxGeometry x="111.75" y="510" width="120" height="80" as="geometry" />
        </mxCell>
        <mxCell id="EcfDH4kpc_ZnoD54JO9O-46" value="" style="edgeStyle=orthogonalEdgeStyle;rounded=0;orthogonalLoop=1;jettySize=auto;html=1;" edge="1" parent="1" source="EcfDH4kpc_ZnoD54JO9O-47">
          <mxGeometry relative="1" as="geometry">
            <mxPoint x="899.1833333333334" y="267.06075949367096" as="targetPoint" />
          </mxGeometry>
        </mxCell>
        <mxCell id="EcfDH4kpc_ZnoD54JO9O-47" value="Masuk Ke Database" style="whiteSpace=wrap;html=1;strokeWidth=2;" vertex="1" parent="1">
          <mxGeometry x="839" y="177" width="120" height="60" as="geometry" />
        </mxCell>
        <mxCell id="EcfDH4kpc_ZnoD54JO9O-49" value="" style="edgeStyle=orthogonalEdgeStyle;rounded=0;orthogonalLoop=1;jettySize=auto;html=1;" edge="1" parent="1" source="EcfDH4kpc_ZnoD54JO9O-50" target="EcfDH4kpc_ZnoD54JO9O-51">
          <mxGeometry relative="1" as="geometry" />
        </mxCell>
        <mxCell id="EcfDH4kpc_ZnoD54JO9O-55" value="" style="edgeStyle=orthogonalEdgeStyle;rounded=0;orthogonalLoop=1;jettySize=auto;html=1;" edge="1" parent="1" source="EcfDH4kpc_ZnoD54JO9O-50" target="EcfDH4kpc_ZnoD54JO9O-54">
          <mxGeometry relative="1" as="geometry" />
        </mxCell>
        <mxCell id="EcfDH4kpc_ZnoD54JO9O-50" value="Apakah Berhasil&lt;div&gt;Masuk Ke Data Base&lt;/div&gt;" style="rhombus;whiteSpace=wrap;html=1;strokeWidth=2;" vertex="1" parent="1">
          <mxGeometry x="830" y="268" width="138.25" height="144" as="geometry" />
        </mxCell>
        <mxCell id="EcfDH4kpc_ZnoD54JO9O-51" value="menampilkan Pesan Eror" style="shape=parallelogram;perimeter=parallelogramPerimeter;whiteSpace=wrap;html=1;fixedSize=1;strokeWidth=2;" vertex="1" parent="1">
          <mxGeometry x="997.25" y="309" width="190" height="60" as="geometry" />
        </mxCell>
        <mxCell id="EcfDH4kpc_ZnoD54JO9O-54" value="Terhubung Ke Firebase" style="whiteSpace=wrap;html=1;strokeWidth=2;" vertex="1" parent="1">
          <mxGeometry x="839.125" y="434" width="120" height="60" as="geometry" />
        </mxCell>
        <mxCell id="EcfDH4kpc_ZnoD54JO9O-80" value="" style="edgeStyle=orthogonalEdgeStyle;rounded=0;orthogonalLoop=1;jettySize=auto;html=1;" edge="1" parent="1" source="EcfDH4kpc_ZnoD54JO9O-56" target="EcfDH4kpc_ZnoD54JO9O-79">
          <mxGeometry relative="1" as="geometry" />
        </mxCell>
        <mxCell id="EcfDH4kpc_ZnoD54JO9O-56" value="Mengambi Data Srting LED" style="rounded=0;whiteSpace=wrap;html=1;" vertex="1" parent="1">
          <mxGeometry x="1190" y="431" width="120" height="60" as="geometry" />
        </mxCell>
        <mxCell id="EcfDH4kpc_ZnoD54JO9O-59" value="" style="endArrow=classic;html=1;rounded=0;exitX=1;exitY=0.5;exitDx=0;exitDy=0;entryX=0.5;entryY=0;entryDx=0;entryDy=0;" edge="1" parent="1" source="EcfDH4kpc_ZnoD54JO9O-54" target="EcfDH4kpc_ZnoD54JO9O-56">
          <mxGeometry width="50" height="50" relative="1" as="geometry">
            <mxPoint x="990" y="430" as="sourcePoint" />
            <mxPoint x="1040" y="380" as="targetPoint" />
            <Array as="points">
              <mxPoint x="1070" y="464" />
              <mxPoint x="1070" y="410" />
              <mxPoint x="1250" y="410" />
            </Array>
          </mxGeometry>
        </mxCell>
        <mxCell id="EcfDH4kpc_ZnoD54JO9O-63" value="" style="edgeStyle=orthogonalEdgeStyle;rounded=0;orthogonalLoop=1;jettySize=auto;html=1;" edge="1" parent="1" source="EcfDH4kpc_ZnoD54JO9O-60" target="EcfDH4kpc_ZnoD54JO9O-62">
          <mxGeometry relative="1" as="geometry" />
        </mxCell>
        <mxCell id="EcfDH4kpc_ZnoD54JO9O-60" value="Mengonversi String ke Intejer" style="whiteSpace=wrap;html=1;rounded=0;" vertex="1" parent="1">
          <mxGeometry x="1190" y="682" width="120" height="60" as="geometry" />
        </mxCell>
        <mxCell id="EcfDH4kpc_ZnoD54JO9O-62" value="Menghidupkan LED sesuai Nilai Intejer 0/1" style="whiteSpace=wrap;html=1;rounded=0;" vertex="1" parent="1">
          <mxGeometry x="1190" y="766" width="120" height="60" as="geometry" />
        </mxCell>
        <mxCell id="EcfDH4kpc_ZnoD54JO9O-68" value="" style="edgeStyle=orthogonalEdgeStyle;rounded=0;orthogonalLoop=1;jettySize=auto;html=1;" edge="1" parent="1" source="EcfDH4kpc_ZnoD54JO9O-65" target="EcfDH4kpc_ZnoD54JO9O-67">
          <mxGeometry relative="1" as="geometry" />
        </mxCell>
        <mxCell id="EcfDH4kpc_ZnoD54JO9O-65" value="Membaca Nilai LDR" style="rounded=0;whiteSpace=wrap;html=1;" vertex="1" parent="1">
          <mxGeometry x="640" y="323" width="120" height="60" as="geometry" />
        </mxCell>
        <mxCell id="EcfDH4kpc_ZnoD54JO9O-70" value="" style="edgeStyle=orthogonalEdgeStyle;rounded=0;orthogonalLoop=1;jettySize=auto;html=1;" edge="1" parent="1" source="EcfDH4kpc_ZnoD54JO9O-67" target="EcfDH4kpc_ZnoD54JO9O-69">
          <mxGeometry relative="1" as="geometry" />
        </mxCell>
        <mxCell id="EcfDH4kpc_ZnoD54JO9O-67" value="Mengonversi NIlai LDR dari Intejer Ke String" style="rounded=0;whiteSpace=wrap;html=1;" vertex="1" parent="1">
          <mxGeometry x="640" y="409" width="120" height="60" as="geometry" />
        </mxCell>
        <mxCell id="EcfDH4kpc_ZnoD54JO9O-72" value="" style="edgeStyle=orthogonalEdgeStyle;rounded=0;orthogonalLoop=1;jettySize=auto;html=1;" edge="1" parent="1" source="EcfDH4kpc_ZnoD54JO9O-69" target="EcfDH4kpc_ZnoD54JO9O-71">
          <mxGeometry relative="1" as="geometry" />
        </mxCell>
        <mxCell id="EcfDH4kpc_ZnoD54JO9O-69" value="Mengirim Nilai String Ke Fire Base" style="rounded=0;whiteSpace=wrap;html=1;" vertex="1" parent="1">
          <mxGeometry x="640" y="498" width="120" height="60" as="geometry" />
        </mxCell>
        <mxCell id="EcfDH4kpc_ZnoD54JO9O-74" value="" style="edgeStyle=orthogonalEdgeStyle;rounded=0;orthogonalLoop=1;jettySize=auto;html=1;" edge="1" parent="1" source="EcfDH4kpc_ZnoD54JO9O-71">
          <mxGeometry relative="1" as="geometry">
            <mxPoint x="795" y="658.75" as="targetPoint" />
          </mxGeometry>
        </mxCell>
        <mxCell id="EcfDH4kpc_ZnoD54JO9O-77" value="" style="edgeStyle=orthogonalEdgeStyle;rounded=0;orthogonalLoop=1;jettySize=auto;html=1;" edge="1" parent="1" source="EcfDH4kpc_ZnoD54JO9O-71" target="EcfDH4kpc_ZnoD54JO9O-76">
          <mxGeometry relative="1" as="geometry" />
        </mxCell>
        <mxCell id="EcfDH4kpc_ZnoD54JO9O-71" value="Berhasil Mengirim Ke firebase" style="rhombus;whiteSpace=wrap;html=1;" vertex="1" parent="1">
          <mxGeometry x="625" y="588" width="150" height="141" as="geometry" />
        </mxCell>
        <mxCell id="EcfDH4kpc_ZnoD54JO9O-73" value="Menampilkan Pesan EROR" style="shape=parallelogram;perimeter=parallelogramPerimeter;whiteSpace=wrap;html=1;fixedSize=1;" vertex="1" parent="1">
          <mxGeometry x="785" y="630.5" width="180" height="60.5" as="geometry" />
        </mxCell>
        <mxCell id="EcfDH4kpc_ZnoD54JO9O-76" value="Menampilkan&amp;nbsp; nilai LDR terkirim Ke Firebase" style="shape=parallelogram;perimeter=parallelogramPerimeter;whiteSpace=wrap;html=1;fixedSize=1;" vertex="1" parent="1">
          <mxGeometry x="625" y="756" width="150" height="60" as="geometry" />
        </mxCell>
        <mxCell id="EcfDH4kpc_ZnoD54JO9O-78" value="" style="endArrow=classic;html=1;rounded=0;exitX=0.5;exitY=1;exitDx=0;exitDy=0;" edge="1" parent="1" source="EcfDH4kpc_ZnoD54JO9O-76">
          <mxGeometry width="50" height="50" relative="1" as="geometry">
            <mxPoint x="510" y="699" as="sourcePoint" />
            <mxPoint x="690" y="299" as="targetPoint" />
            <Array as="points">
              <mxPoint x="700" y="839" />
              <mxPoint x="600" y="839" />
              <mxPoint x="600" y="299" />
            </Array>
          </mxGeometry>
        </mxCell>
        <mxCell id="EcfDH4kpc_ZnoD54JO9O-82" value="" style="edgeStyle=orthogonalEdgeStyle;rounded=0;orthogonalLoop=1;jettySize=auto;html=1;" edge="1" parent="1" source="EcfDH4kpc_ZnoD54JO9O-79" target="EcfDH4kpc_ZnoD54JO9O-81">
          <mxGeometry relative="1" as="geometry" />
        </mxCell>
        <mxCell id="EcfDH4kpc_ZnoD54JO9O-84" value="" style="edgeStyle=orthogonalEdgeStyle;rounded=0;orthogonalLoop=1;jettySize=auto;html=1;" edge="1" parent="1" source="EcfDH4kpc_ZnoD54JO9O-79" target="EcfDH4kpc_ZnoD54JO9O-60">
          <mxGeometry relative="1" as="geometry" />
        </mxCell>
        <mxCell id="EcfDH4kpc_ZnoD54JO9O-79" value="apkah berhasil mengambil data" style="rhombus;whiteSpace=wrap;html=1;rounded=0;" vertex="1" parent="1">
          <mxGeometry x="1190" y="521" width="120" height="119" as="geometry" />
        </mxCell>
        <mxCell id="EcfDH4kpc_ZnoD54JO9O-81" value="Menampilkan Eror Saat mengambil&lt;div&gt;Data&lt;/div&gt;" style="shape=parallelogram;perimeter=parallelogramPerimeter;whiteSpace=wrap;html=1;fixedSize=1;rounded=0;" vertex="1" parent="1">
          <mxGeometry x="1009" y="545.5" width="160" height="69.5" as="geometry" />
        </mxCell>
        <mxCell id="EcfDH4kpc_ZnoD54JO9O-83" value="" style="endArrow=classic;html=1;rounded=0;exitX=0.5;exitY=0;exitDx=0;exitDy=0;" edge="1" parent="1" source="EcfDH4kpc_ZnoD54JO9O-81">
          <mxGeometry width="50" height="50" relative="1" as="geometry">
            <mxPoint x="980" y="520" as="sourcePoint" />
            <mxPoint x="1240" y="420" as="targetPoint" />
            <Array as="points">
              <mxPoint x="1089" y="420" />
            </Array>
          </mxGeometry>
        </mxCell>
        <mxCell id="EcfDH4kpc_ZnoD54JO9O-85" value="" style="endArrow=classic;html=1;rounded=0;exitX=0.5;exitY=1;exitDx=0;exitDy=0;" edge="1" parent="1" source="EcfDH4kpc_ZnoD54JO9O-62">
          <mxGeometry width="50" height="50" relative="1" as="geometry">
            <mxPoint x="1350" y="870" as="sourcePoint" />
            <mxPoint x="1260" y="420" as="targetPoint" />
            <Array as="points">
              <mxPoint x="1250" y="850" />
              <mxPoint x="1330" y="850" />
              <mxPoint x="1320" y="420" />
            </Array>
          </mxGeometry>
        </mxCell>
        <mxCell id="EcfDH4kpc_ZnoD54JO9O-86" value="&#xa;&lt;span style=&quot;color: rgb(0, 0, 0); font-family: Helvetica; font-size: 36px; font-style: normal; font-variant-ligatures: normal; font-variant-caps: normal; font-weight: 400; letter-spacing: normal; orphans: 2; text-align: center; text-indent: 0px; text-transform: none; widows: 2; word-spacing: 0px; -webkit-text-stroke-width: 0px; white-space: normal; background-color: rgb(251, 251, 251); text-decoration-thickness: initial; text-decoration-style: initial; text-decoration-color: initial; display: inline !important; float: none;&quot;&gt;A&lt;/span&gt;&#xa;&#xa;" style="shape=offPageConnector;whiteSpace=wrap;html=1;size=0.375;" vertex="1" parent="1">
          <mxGeometry x="131" y="618" width="80" height="80" as="geometry" />
        </mxCell>
        <mxCell id="EcfDH4kpc_ZnoD54JO9O-90" value="" style="edgeStyle=orthogonalEdgeStyle;rounded=0;orthogonalLoop=1;jettySize=auto;html=1;" edge="1" parent="1" source="EcfDH4kpc_ZnoD54JO9O-89" target="EcfDH4kpc_ZnoD54JO9O-47">
          <mxGeometry relative="1" as="geometry" />
        </mxCell>
        <mxCell id="EcfDH4kpc_ZnoD54JO9O-89" value="&#xa;&lt;span style=&quot;color: rgb(0, 0, 0); font-family: Helvetica; font-size: 36px; font-style: normal; font-variant-ligatures: normal; font-variant-caps: normal; font-weight: 400; letter-spacing: normal; orphans: 2; text-align: center; text-indent: 0px; text-transform: none; widows: 2; word-spacing: 0px; -webkit-text-stroke-width: 0px; white-space: normal; background-color: rgb(251, 251, 251); text-decoration-thickness: initial; text-decoration-style: initial; text-decoration-color: initial; display: inline !important; float: none;&quot;&gt;A&lt;/span&gt;&#xa;&#xa;" style="shape=offPageConnector;whiteSpace=wrap;html=1;size=0.375;" vertex="1" parent="1">
          <mxGeometry x="859" y="69" width="80" height="80" as="geometry" />
        </mxCell>
        <mxCell id="EcfDH4kpc_ZnoD54JO9O-91" value="" style="endArrow=classic;html=1;rounded=0;exitX=1;exitY=0.5;exitDx=0;exitDy=0;" edge="1" parent="1" source="EcfDH4kpc_ZnoD54JO9O-73">
          <mxGeometry width="50" height="50" relative="1" as="geometry">
            <mxPoint x="830" y="560" as="sourcePoint" />
            <mxPoint x="710" y="300" as="targetPoint" />
            <Array as="points">
              <mxPoint x="980" y="661" />
              <mxPoint x="980" y="620" />
              <mxPoint x="780" y="620" />
              <mxPoint x="780" y="300" />
            </Array>
          </mxGeometry>
        </mxCell>
        <mxCell id="EcfDH4kpc_ZnoD54JO9O-92" value="" style="endArrow=classic;html=1;rounded=0;exitX=0;exitY=0.5;exitDx=0;exitDy=0;" edge="1" parent="1">
          <mxGeometry width="50" height="50" relative="1" as="geometry">
            <mxPoint x="839.125" y="465" as="sourcePoint" />
            <mxPoint x="700" y="321" as="targetPoint" />
            <Array as="points">
              <mxPoint x="800" y="465" />
              <mxPoint x="800" y="281" />
              <mxPoint x="700" y="281" />
            </Array>
          </mxGeometry>
        </mxCell>
        <mxCell id="EcfDH4kpc_ZnoD54JO9O-93" value="" style="endArrow=classic;html=1;rounded=0;exitX=1;exitY=0.5;exitDx=0;exitDy=0;" edge="1" parent="1" source="EcfDH4kpc_ZnoD54JO9O-51">
          <mxGeometry width="50" height="50" relative="1" as="geometry">
            <mxPoint x="1300" y="230" as="sourcePoint" />
            <mxPoint x="910" y="160" as="targetPoint" />
            <Array as="points">
              <mxPoint x="1200" y="339" />
              <mxPoint x="1200" y="290" />
              <mxPoint x="1020" y="290" />
              <mxPoint x="1020" y="160" />
            </Array>
          </mxGeometry>
        </mxCell>
      </root>
    </mxGraphModel>
  </diagram>
</mxfile>
